<svg viewBox="0 0 800 600" xmlns="http://www.w3.org/2000/svg">
  <!-- Define styles -->
  <defs>
    <style>
      .title { font-family: Arial, sans-serif; font-size: 24px; font-weight: bold; fill: #2c3e50; }
      .layer-label { font-family: Arial, sans-serif; font-size: 14px; fill: #34495e; }
      .neuron { fill: #3498db; stroke: #2980b9; stroke-width: 2; }
      .connection { stroke: #95a5a6; stroke-width: 2; opacity: 0.8; }
    </style>
  </defs>
  
  <!-- Title -->
  <text x="400" y="40" class="title" text-anchor="middle">Deep Neural Network</text>
  
  <!-- Input Layer Label -->
  <text x="100" y="90" class="layer-label" text-anchor="middle">Input Layer</text>
  
  <!-- Hidden Layer 1 Label -->
  <text x="250" y="90" class="layer-label" text-anchor="middle">Hidden Layer 1</text>
  
  <!-- Hidden Layer 2 Label -->
  <text x="400" y="90" class="layer-label" text-anchor="middle">Hidden Layer 2</text>
  
  <!-- Hidden Layer 3 Label -->
  <text x="550" y="90" class="layer-label" text-anchor="middle">Hidden Layer 3</text>
  
  <!-- Output Layer Label -->
  <text x="700" y="90" class="layer-label" text-anchor="middle">Output Layer</text>
  
  <!-- Input Layer (4 neurons) -->
  <circle cx="100" cy="150" r="15" class="neuron"/>
  <circle cx="100" cy="230" r="15" class="neuron"/>
  <circle cx="100" cy="310" r="15" class="neuron"/>
  <circle cx="100" cy="390" r="15" class="neuron"/>
  <circle cx="100" cy="470" r="15" class="neuron"/>
  
  <!-- Hidden Layer 1 (6 neurons) -->
  <circle cx="250" cy="120" r="15" class="neuron"/>
  <circle cx="250" cy="190" r="15" class="neuron"/>
  <circle cx="250" cy="260" r="15" class="neuron"/>
  <circle cx="250" cy="330" r="15" class="neuron"/>
  <circle cx="250" cy="400" r="15" class="neuron"/>
  <circle cx="250" cy="470" r="15" class="neuron"/>
  <circle cx="250" cy="540" r="15" class="neuron"/>
  
  <!-- Hidden Layer 2 (6 neurons) -->
  <circle cx="400" cy="120" r="15" class="neuron"/>
  <circle cx="400" cy="190" r="15" class="neuron"/>
  <circle cx="400" cy="260" r="15" class="neuron"/>
  <circle cx="400" cy="330" r="15" class="neuron"/>
  <circle cx="400" cy="400" r="15" class="neuron"/>
  <circle cx="400" cy="470" r="15" class="neuron"/>
  <circle cx="400" cy="540" r="15" class="neuron"/>
  
  <!-- Hidden Layer 3 (5 neurons) -->
  <circle cx="550" cy="150" r="15" class="neuron"/>
  <circle cx="550" cy="230" r="15" class="neuron"/>
  <circle cx="550" cy="310" r="15" class="neuron"/>
  <circle cx="550" cy="390" r="15" class="neuron"/>
  <circle cx="550" cy="470" r="15" class="neuron"/>
  
  <!-- Output Layer (3 neurons) -->
  <circle cx="700" cy="230" r="15" class="neuron"/>
  <circle cx="700" cy="310" r="15" class="neuron"/>
  <circle cx="700" cy="390" r="15" class="neuron"/>
  
  <!-- Connections: Input to Hidden Layer 1 -->
  <line x1="115" y1="150" x2="235" y2="120" class="connection"/>
  <line x1="115" y1="150" x2="235" y2="190" class="connection"/>
  <line x1="115" y1="150" x2="235" y2="260" class="connection"/>
  <line x1="115" y1="150" x2="235" y2="330" class="connection"/>
  <line x1="115" y1="150" x2="235" y2="400" class="connection"/>
  <line x1="115" y1="150" x2="235" y2="470" class="connection"/>
  <line x1="115" y1="150" x2="235" y2="540" class="connection"/>
  
  <line x1="115" y1="230" x2="235" y2="120" class="connection"/>
  <line x1="115" y1="230" x2="235" y2="190" class="connection"/>
  <line x1="115" y1="230" x2="235" y2="260" class="connection"/>
  <line x1="115" y1="230" x2="235" y2="330" class="connection"/>
  <line x1="115" y1="230" x2="235" y2="400" class="connection"/>
  <line x1="115" y1="230" x2="235" y2="470" class="connection"/>
  <line x1="115" y1="230" x2="235" y2="540" class="connection"/>
  
  <line x1="115" y1="310" x2="235" y2="120" class="connection"/>
  <line x1="115" y1="310" x2="235" y2="190" class="connection"/>
  <line x1="115" y1="310" x2="235" y2="260" class="connection"/>
  <line x1="115" y1="310" x2="235" y2="330" class="connection"/>
  <line x1="115" y1="310" x2="235" y2="400" class="connection"/>
  <line x1="115" y1="310" x2="235" y2="470" class="connection"/>
  <line x1="115" y1="310" x2="235" y2="540" class="connection"/>
  
  <line x1="115" y1="390" x2="235" y2="120" class="connection"/>
  <line x1="115" y1="390" x2="235" y2="190" class="connection"/>
  <line x1="115" y1="390" x2="235" y2="260" class="connection"/>
  <line x1="115" y1="390" x2="235" y2="330" class="connection"/>
  <line x1="115" y1="390" x2="235" y2="400" class="connection"/>
  <line x1="115" y1="390" x2="235" y2="470" class="connection"/>
  <line x1="115" y1="390" x2="235" y2="540" class="connection"/>
  
  <line x1="115" y1="470" x2="235" y2="120" class="connection"/>
  <line x1="115" y1="470" x2="235" y2="190" class="connection"/>
  <line x1="115" y1="470" x2="235" y2="260" class="connection"/>
  <line x1="115" y1="470" x2="235" y2="330" class="connection"/>
  <line x1="115" y1="470" x2="235" y2="400" class="connection"/>
  <line x1="115" y1="470" x2="235" y2="470" class="connection"/>
  <line x1="115" y1="470" x2="235" y2="540" class="connection"/>
  
  <!-- Connections: Hidden Layer 1 to Hidden Layer 2 -->
  <line x1="265" y1="120" x2="385" y2="120" class="connection"/>
  <line x1="265" y1="120" x2="385" y2="190" class="connection"/>
  <line x1="265" y1="120" x2="385" y2="260" class="connection"/>
  <line x1="265" y1="120" x2="385" y2="330" class="connection"/>
  <line x1="265" y1="120" x2="385" y2="400" class="connection"/>
  <line x1="265" y1="120" x2="385" y2="470" class="connection"/>
  <line x1="265" y1="120" x2="385" y2="540" class="connection"/>
  
  <line x1="265" y1="190" x2="385" y2="120" class="connection"/>
  <line x1="265" y1="190" x2="385" y2="190" class="connection"/>
  <line x1="265" y1="190" x2="385" y2="260" class="connection"/>
  <line x1="265" y1="190" x2="385" y2="330" class="connection"/>
  <line x1="265" y1="190" x2="385" y2="400" class="connection"/>
  <line x1="265" y1="190" x2="385" y2="470" class="connection"/>
  <line x1="265" y1="190" x2="385" y2="540" class="connection"/>
  
  <line x1="265" y1="260" x2="385" y2="120" class="connection"/>
  <line x1="265" y1="260" x2="385" y2="190" class="connection"/>
  <line x1="265" y1="260" x2="385" y2="260" class="connection"/>
  <line x1="265" y1="260" x2="385" y2="330" class="connection"/>
  <line x1="265" y1="260" x2="385" y2="400" class="connection"/>
  <line x1="265" y1="260" x2="385" y2="470" class="connection"/>
  <line x1="265" y1="260" x2="385" y2="540" class="connection"/>
  
  <line x1="265" y1="330" x2="385" y2="120" class="connection"/>
  <line x1="265" y1="330" x2="385" y2="190" class="connection"/>
  <line x1="265" y1="330" x2="385" y2="260" class="connection"/>
  <line x1="265" y1="330" x2="385" y2="330" class="connection"/>
  <line x1="265" y1="330" x2="385" y2="400" class="connection"/>
  <line x1="265" y1="330" x2="385" y2="470" class="connection"/>
  <line x1="265" y1="330" x2="385" y2="540" class="connection"/>
  
  <line x1="265" y1="400" x2="385" y2="120" class="connection"/>
  <line x1="265" y1="400" x2="385" y2="190" class="connection"/>
  <line x1="265" y1="400" x2="385" y2="260" class="connection"/>
  <line x1="265" y1="400" x2="385" y2="330" class="connection"/>
  <line x1="265" y1="400" x2="385" y2="400" class="connection"/>
  <line x1="265" y1="400" x2="385" y2="470" class="connection"/>
  <line x1="265" y1="400" x2="385" y2="540" class="connection"/>
  
  <line x1="265" y1="470" x2="385" y2="120" class="connection"/>
  <line x1="265" y1="470" x2="385" y2="190" class="connection"/>
  <line x1="265" y1="470" x2="385" y2="260" class="connection"/>
  <line x1="265" y1="470" x2="385" y2="330" class="connection"/>
  <line x1="265" y1="470" x2="385" y2="400" class="connection"/>
  <line x1="265" y1="470" x2="385" y2="470" class="connection"/>
  <line x1="265" y1="470" x2="385" y2="540" class="connection"/>
  
  <line x1="265" y1="540" x2="385" y2="120" class="connection"/>
  <line x1="265" y1="540" x2="385" y2="190" class="connection"/>
  <line x1="265" y1="540" x2="385" y2="260" class="connection"/>
  <line x1="265" y1="540" x2="385" y2="330" class="connection"/>
  <line x1="265" y1="540" x2="385" y2="400" class="connection"/>
  <line x1="265" y1="540" x2="385" y2="470" class="connection"/>
  <line x1="265" y1="540" x2="385" y2="540" class="connection"/>
  
  <!-- Connections: Hidden Layer 2 to Hidden Layer 3 -->
  <line x1="415" y1="120" x2="535" y2="150" class="connection"/>
  <line x1="415" y1="120" x2="535" y2="230" class="connection"/>
  <line x1="415" y1="120" x2="535" y2="310" class="connection"/>
  <line x1="415" y1="120" x2="535" y2="390" class="connection"/>
  <line x1="415" y1="120" x2="535" y2="470" class="connection"/>
  
  <line x1="415" y1="190" x2="535" y2="150" class="connection"/>
  <line x1="415" y1="190" x2="535" y2="230" class="connection"/>
  <line x1="415" y1="190" x2="535" y2="310" class="connection"/>
  <line x1="415" y1="190" x2="535" y2="390" class="connection"/>
  <line x1="415" y1="190" x2="535" y2="470" class="connection"/>
  
  <line x1="415" y1="260" x2="535" y2="150" class="connection"/>
  <line x1="415" y1="260" x2="535" y2="230" class="connection"/>
  <line x1="415" y1="260" x2="535" y2="310" class="connection"/>
  <line x1="415" y1="260" x2="535" y2="390" class="connection"/>
  <line x1="415" y1="260" x2="535" y2="470" class="connection"/>
  
  <line x1="415" y1="330" x2="535" y2="150" class="connection"/>
  <line x1="415" y1="330" x2="535" y2="230" class="connection"/>
  <line x1="415" y1="330" x2="535" y2="310" class="connection"/>
  <line x1="415" y1="330" x2="535" y2="390" class="connection"/>
  <line x1="415" y1="330" x2="535" y2="470" class="connection"/>
  
  <line x1="415" y1="400" x2="535" y2="150" class="connection"/>
  <line x1="415" y1="400" x2="535" y2="230" class="connection"/>
  <line x1="415" y1="400" x2="535" y2="310" class="connection"/>
  <line x1="415" y1="400" x2="535" y2="390" class="connection"/>
  <line x1="415" y1="400" x2="535" y2="470" class="connection"/>
  
  <line x1="415" y1="470" x2="535" y2="150" class="connection"/>
  <line x1="415" y1="470" x2="535" y2="230" class="connection"/>
  <line x1="415" y1="470" x2="535" y2="310" class="connection"/>
  <line x1="415" y1="470" x2="535" y2="390" class="connection"/>
  <line x1="415" y1="470" x2="535" y2="470" class="connection"/>
  
  <line x1="415" y1="540" x2="535" y2="150" class="connection"/>
  <line x1="415" y1="540" x2="535" y2="230" class="connection"/>
  <line x1="415" y1="540" x2="535" y2="310" class="connection"/>
  <line x1="415" y1="540" x2="535" y2="390" class="connection"/>
  <line x1="415" y1="540" x2="535" y2="470" class="connection"/>
  
  <!-- Connections: Hidden Layer 3 to Output Layer -->
  <line x1="565" y1="150" x2="685" y2="230" class="connection"/>
  <line x1="565" y1="150" x2="685" y2="310" class="connection"/>
  <line x1="565" y1="150" x2="685" y2="390" class="connection"/>
  
  <line x1="565" y1="230" x2="685" y2="230" class="connection"/>
  <line x1="565" y1="230" x2="685" y2="310" class="connection"/>
  <line x1="565" y1="230" x2="685" y2="390" class="connection"/>
  
  <line x1="565" y1="310" x2="685" y2="230" class="connection"/>
  <line x1="565" y1="310" x2="685" y2="310" class="connection"/>
  <line x1="565" y1="310" x2="685" y2="390" class="connection"/>
  
  <line x1="565" y1="390" x2="685" y2="230" class="connection"/>
  <line x1="565" y1="390" x2="685" y2="310" class="connection"/>
  <line x1="565" y1="390" x2="685" y2="390" class="connection"/>
  
  <line x1="565" y1="470" x2="685" y2="230" class="connection"/>
  <line x1="565" y1="470" x2="685" y2="310" class="connection"/>
  <line x1="565" y1="470" x2="685" y2="390" class="connection"/>
</svg>