<svg xmlns="http://www.w3.org/2000/svg" xmlns:xlink="http://www.w3.org/1999/xlink" contentStyleType="text/css" height="551px" preserveAspectRatio="none" style="width:783px;height:551px;background:#FFFFFF;" version="1.1" viewBox="0 0 783 551" width="783px" zoomAndPan="magnify"><defs/><g><!--entity GM--><g id="elem_GM"><rect fill="#F1F1F1" height="40" rx="2.5" ry="2.5" style="stroke:#333333;stroke-width:0.5;" width="20" x="233" y="7"/><text fill="#000000" font-family="sans-serif" font-size="14" font-weight="bold" lengthAdjust="spacing" textLength="0" x="243" y="17">GM-NAA I/O</text><text fill="#000000" font-family="sans-serif" font-size="14" font-weight="bold" lengthAdjust="spacing" textLength="0" x="243" y="27">(1956)</text></g><!--entity CTSS--><g id="elem_CTSS"><rect fill="#F1F1F1" height="40" rx="2.5" ry="2.5" style="stroke:#333333;stroke-width:0.5;" width="20" x="313" y="124"/><text fill="#000000" font-family="sans-serif" font-size="14" font-weight="bold" lengthAdjust="spacing" textLength="0" x="323" y="134">CTSS</text><text fill="#000000" font-family="sans-serif" font-size="14" font-weight="bold" lengthAdjust="spacing" textLength="0" x="323" y="144">(1961)</text></g><!--entity IBM360--><g id="elem_IBM360"><rect fill="#F1F1F1" height="40" rx="2.5" ry="2.5" style="stroke:#333333;stroke-width:0.5;" width="20" x="215" y="241"/><text fill="#000000" font-family="sans-serif" font-size="14" font-weight="bold" lengthAdjust="spacing" textLength="0" x="225" y="251">IBM/360</text><text fill="#000000" font-family="sans-serif" font-size="14" font-weight="bold" lengthAdjust="spacing" textLength="0" x="225" y="261">(1965)</text></g><!--entity MULTICS--><g id="elem_MULTICS"><rect fill="#F1F1F1" height="40" rx="2.5" ry="2.5" style="stroke:#333333;stroke-width:0.5;" width="20" x="391" y="241"/><text fill="#000000" font-family="sans-serif" font-size="14" font-weight="bold" lengthAdjust="spacing" textLength="0" x="401" y="251">MULTICS</text><text fill="#000000" font-family="sans-serif" font-size="14" font-weight="bold" lengthAdjust="spacing" textLength="0" x="401" y="261">(1969)</text></g><!--entity UNIX--><g id="elem_UNIX"><rect fill="#F1F1F1" height="40" rx="2.5" ry="2.5" style="stroke:#333333;stroke-width:0.5;" width="20" x="391" y="363"/><text fill="#000000" font-family="sans-serif" font-size="14" font-weight="bold" lengthAdjust="spacing" textLength="0" x="401" y="373">UNIX</text><text fill="#000000" font-family="sans-serif" font-size="14" font-weight="bold" lengthAdjust="spacing" textLength="0" x="401" y="383">(1971)</text></g><!--entity MSDOS--><g id="elem_MSDOS"><rect fill="#F1F1F1" height="40" rx="2.5" ry="2.5" style="stroke:#333333;stroke-width:0.5;" width="20" x="617" y="7"/><text fill="#000000" font-family="sans-serif" font-size="14" font-weight="bold" lengthAdjust="spacing" textLength="0" x="627" y="17">MS-DOS</text><text fill="#000000" font-family="sans-serif" font-size="14" font-weight="bold" lengthAdjust="spacing" textLength="0" x="627" y="27">(1981)</text></g><!--entity OS2--><g id="elem_OS2"><rect fill="#F1F1F1" height="40" rx="2.5" ry="2.5" style="stroke:#333333;stroke-width:0.5;" width="20" x="536" y="124"/><text fill="#000000" font-family="sans-serif" font-size="14" font-weight="bold" lengthAdjust="spacing" textLength="0" x="546" y="134">OS/2</text><text fill="#000000" font-family="sans-serif" font-size="14" font-weight="bold" lengthAdjust="spacing" textLength="0" x="546" y="144">(1987)</text></g><!--entity MacClassic--><g id="elem_MacClassic"><rect fill="#F1F1F1" height="50" rx="2.5" ry="2.5" style="stroke:#333333;stroke-width:0.5;" width="20" x="7" y="358"/><text fill="#000000" font-family="sans-serif" font-size="14" font-weight="bold" lengthAdjust="spacing" textLength="0" x="17" y="368">Mac OS</text><text fill="#000000" font-family="sans-serif" font-size="14" font-weight="bold" lengthAdjust="spacing" textLength="0" x="17" y="378">(Classic)</text><text fill="#000000" font-family="sans-serif" font-size="14" font-weight="bold" lengthAdjust="spacing" textLength="0" x="17" y="388">(1984)</text></g><!--entity Win1--><g id="elem_Win1"><rect fill="#F1F1F1" height="40" rx="2.5" ry="2.5" style="stroke:#333333;stroke-width:0.5;" width="20" x="689" y="124"/><text fill="#000000" font-family="sans-serif" font-size="14" font-weight="bold" lengthAdjust="spacing" textLength="0" x="699" y="134">Windows 1.0</text><text fill="#000000" font-family="sans-serif" font-size="14" font-weight="bold" lengthAdjust="spacing" textLength="0" x="699" y="144">(1985)</text></g><!--entity WinNT--><g id="elem_WinNT"><rect fill="#F1F1F1" height="40" rx="2.5" ry="2.5" style="stroke:#333333;stroke-width:0.5;" width="20" x="609" y="241"/><text fill="#000000" font-family="sans-serif" font-size="14" font-weight="bold" lengthAdjust="spacing" textLength="0" x="619" y="251">Windows NT</text><text fill="#000000" font-family="sans-serif" font-size="14" font-weight="bold" lengthAdjust="spacing" textLength="0" x="619" y="261">(1993)</text></g><!--entity Linux--><g id="elem_Linux"><rect fill="#EEEBDC" height="50" rx="2.5" ry="2.5" style="stroke:#333333;stroke-width:0.5;" width="20" x="568" y="490"/><text fill="#000000" font-family="sans-serif" font-size="14" font-weight="bold" lengthAdjust="spacing" textLength="0" x="578" y="500">«modern»</text><text fill="#000000" font-family="sans-serif" font-size="14" font-weight="bold" lengthAdjust="spacing" textLength="0" x="578" y="510">Linux</text><text fill="#000000" font-family="sans-serif" font-size="14" font-weight="bold" lengthAdjust="spacing" textLength="0" x="578" y="520">(1991)</text></g><!--entity macOS--><g id="elem_macOS"><rect fill="#EEEBDC" height="60" rx="2.5" ry="2.5" style="stroke:#333333;stroke-width:0.5;" width="20" x="84" y="485"/><text fill="#000000" font-family="sans-serif" font-size="14" font-weight="bold" lengthAdjust="spacing" textLength="0" x="94" y="495">«modern»</text><text fill="#000000" font-family="sans-serif" font-size="14" font-weight="bold" lengthAdjust="spacing" textLength="0" x="94" y="505">macOS</text><text fill="#000000" font-family="sans-serif" font-size="14" font-weight="bold" lengthAdjust="spacing" textLength="0" x="94" y="515">(OS X)</text><text fill="#000000" font-family="sans-serif" font-size="14" font-weight="bold" lengthAdjust="spacing" textLength="0" x="94" y="525">(2001)</text></g><!--entity iOS--><g id="elem_iOS"><rect fill="#EEEBDC" height="50" rx="2.5" ry="2.5" style="stroke:#333333;stroke-width:0.5;" width="20" x="333" y="490"/><text fill="#000000" font-family="sans-serif" font-size="14" font-weight="bold" lengthAdjust="spacing" textLength="0" x="343" y="500">«modern»</text><text fill="#000000" font-family="sans-serif" font-size="14" font-weight="bold" lengthAdjust="spacing" textLength="0" x="343" y="510">iOS</text><text fill="#000000" font-family="sans-serif" font-size="14" font-weight="bold" lengthAdjust="spacing" textLength="0" x="343" y="520">(2007)</text></g><!--entity Android--><g id="elem_Android"><rect fill="#EEEBDC" height="50" rx="2.5" ry="2.5" style="stroke:#333333;stroke-width:0.5;" width="20" x="450" y="490"/><text fill="#000000" font-family="sans-serif" font-size="14" font-weight="bold" lengthAdjust="spacing" textLength="0" x="460" y="500">«modern»</text><text fill="#000000" font-family="sans-serif" font-size="14" font-weight="bold" lengthAdjust="spacing" textLength="0" x="460" y="510">Android</text><text fill="#000000" font-family="sans-serif" font-size="14" font-weight="bold" lengthAdjust="spacing" textLength="0" x="460" y="520">(2008)</text></g><!--entity Win11--><g id="elem_Win11"><rect fill="#F1F1F1" height="40" rx="2.5" ry="2.5" style="stroke:#333333;stroke-width:0.5;" width="20" x="609" y="363"/><text fill="#000000" font-family="sans-serif" font-size="14" font-weight="bold" lengthAdjust="spacing" textLength="0" x="619" y="373">Windows 11</text><text fill="#000000" font-family="sans-serif" font-size="14" font-weight="bold" lengthAdjust="spacing" textLength="0" x="619" y="383">(2022)</text></g><!--link GM to CTSS--><g id="link_GM_CTSS"><path d="M253.46,43.03 C268.79,65.07 293.7839,100.9943 309.1139,123.0343 " fill="none" id="GM-to-CTSS" style="stroke:#181818;stroke-width:1.0;"/><polygon fill="#181818" points="312.54,127.96,310.6847,118.2875,309.685,123.8553,304.1171,122.8556,312.54,127.96" style="stroke:#181818;stroke-width:1.0;"/><text fill="#000000" font-family="sans-serif" font-size="13" lengthAdjust="spacing" textLength="81" x="288.79" y="90.0669">time-sharing</text></g><!--link GM to IBM360--><g id="link_GM_IBM360"><path d="M235.01,47.44 C227.61,66.55 217.16,96.73 213,124 C206.71,165.24 213.4922,208.1912 219.1222,234.6712 " fill="none" id="GM-to-IBM360" style="stroke:#181818;stroke-width:1.0;"/><polygon fill="#181818" points="220.37,240.54,222.4109,230.9049,219.3302,235.6493,214.5858,232.5686,220.37,240.54" style="stroke:#181818;stroke-width:1.0;"/><text fill="#000000" font-family="sans-serif" font-size="13" lengthAdjust="spacing" textLength="80" x="214" y="148.5669">time sharing</text></g><!--link CTSS to MULTICS--><g id="link_CTSS_MULTICS"><path d="M333.43,157.12 C341.58,166.83 353,180.93 362,194 C372.49,209.24 380.1625,222.1526 387.6525,235.5526 " fill="none" id="CTSS-to-MULTICS" style="stroke:#181818;stroke-width:1.0;"/><polygon fill="#181818" points="390.58,240.79,389.6804,230.9823,388.1405,236.4255,382.6972,234.8856,390.58,240.79" style="stroke:#181818;stroke-width:1.0;"/><text fill="#000000" font-family="sans-serif" font-size="13" lengthAdjust="spacing" textLength="105" x="373.35" y="207.0669">memory sharing</text></g><!--link CTSS to IBM360--><g id="link_CTSS_IBM360"><path d="M312.57,150.58 C293.97,160.71 256.19,182.16 247,194 C236.41,207.65 231.9979,220.7628 229.0979,234.8728 " fill="none" id="CTSS-to-IBM360" style="stroke:#181818;stroke-width:1.0;"/><polygon fill="#181818" points="227.89,240.75,233.62,232.7395,228.8966,235.8524,225.7838,231.129,227.89,240.75" style="stroke:#181818;stroke-width:1.0;"/><text fill="#000000" font-family="sans-serif" font-size="13" lengthAdjust="spacing" textLength="105" x="248" y="207.0669">memory sharing</text></g><!--link MULTICS to UNIX--><g id="link_MULTICS_UNIX"><path d="M401,281.28 C401,303.67 401,334.39 401,356.77 " fill="none" id="MULTICS-to-UNIX" style="stroke:#181818;stroke-width:1.0;"/><polygon fill="#181818" points="401,362.77,405,353.77,401,357.77,397,353.77,401,362.77" style="stroke:#181818;stroke-width:1.0;"/><text fill="#000000" font-family="sans-serif" font-size="13" lengthAdjust="spacing" textLength="106" x="402" y="324.0669">simplified design</text></g><!--link UNIX to Linux--><g id="link_UNIX_Linux"><path d="M411.26,386.94 C432.76,393.45 483.39,410.72 518,438 C538.86,454.44 553.6089,474.4779 564.2989,491.2779 " fill="none" id="UNIX-to-Linux" style="stroke:#181818;stroke-width:1.0;"/><polygon fill="#181818" points="567.52,496.34,566.0631,486.5995,564.8358,492.1216,559.3137,490.8942,567.52,496.34" style="stroke:#181818;stroke-width:1.0;"/><text fill="#000000" font-family="sans-serif" font-size="13" lengthAdjust="spacing" textLength="118" x="536.4" y="451.0669">open-source clone</text></g><!--link UNIX to macOS--><g id="link_UNIX_macOS"><path d="M390.71,385.29 C359.86,389.47 265.96,404.29 196,438 C159,455.83 126.3254,483.7967 108.8154,499.9867 " fill="none" id="UNIX-to-macOS" style="stroke:#181818;stroke-width:1.0;"/><polygon fill="#181818" points="104.41,504.06,113.7337,500.887,108.0812,500.6656,108.3026,495.013,104.41,504.06" style="stroke:#181818;stroke-width:1.0;"/><text fill="#000000" font-family="sans-serif" font-size="13" lengthAdjust="spacing" textLength="130" x="197" y="451.0669">POSIX base (Darwin)</text></g><!--link UNIX to Android--><g id="link_UNIX_Android"><path d="M409.83,403.46 C420.44,426.84 435.7415,460.5358 447.0315,485.4258 " fill="none" id="UNIX-to-Android" style="stroke:#181818;stroke-width:1.0;"/><polygon fill="#181818" points="449.51,490.89,449.435,481.0414,447.4446,486.3365,442.1495,484.3461,449.51,490.89" style="stroke:#181818;stroke-width:1.0;"/><text fill="#000000" font-family="sans-serif" font-size="13" lengthAdjust="spacing" textLength="76" x="433.27" y="451.0669">Linux kernel</text></g><!--link UNIX to iOS--><g id="link_UNIX_iOS"><path d="M390.83,389.31 C376.36,397.52 350.45,414.79 340,438 C332.73,454.13 332.8455,468.2934 335.6055,483.7534 " fill="none" id="UNIX-to-iOS" style="stroke:#181818;stroke-width:1.0;"/><polygon fill="#181818" points="336.66,489.66,339.016,480.0971,335.7813,484.7378,331.1405,481.5031,336.66,489.66" style="stroke:#181818;stroke-width:1.0;"/><text fill="#000000" font-family="sans-serif" font-size="13" lengthAdjust="spacing" textLength="75" x="341" y="451.0669">Darwin core</text></g><!--link MSDOS to Win1--><g id="link_MSDOS_Win1"><path d="M637.44,37.27 C647.37,46.54 662.22,61.59 672,77 C681.29,91.63 686.5652,104.3171 691.1852,117.9571 " fill="none" id="MSDOS-to-Win1" style="stroke:#181818;stroke-width:1.0;"/><polygon fill="#181818" points="693.11,123.64,694.0113,113.8325,691.506,118.9043,686.4342,116.3989,693.11,123.64" style="stroke:#181818;stroke-width:1.0;"/><text fill="#000000" font-family="sans-serif" font-size="13" lengthAdjust="spacing" textLength="94" x="681.48" y="90.0669">shell over DOS</text></g><!--link Win1 to WinNT--><g id="link_Win1_WinNT"><path d="M688.58,163.01 C680.61,176.49 669.11,195.23 658,211 C648.85,223.97 641.2888,233.4787 633.1888,243.2087 " fill="none" id="Win1-to-WinNT" style="stroke:#181818;stroke-width:1.0;"/><polygon fill="#181818" points="629.35,247.82,638.1823,243.4623,632.549,243.9773,632.034,238.3439,629.35,247.82" style="stroke:#181818;stroke-width:1.0;"/><text fill="#000000" font-family="sans-serif" font-size="13" lengthAdjust="spacing" textLength="68" x="669.73" y="207.0669">new kernel</text></g><!--link WinNT to Win11--><g id="link_WinNT_Win11"><path d="M619,281.28 C619,303.67 619,334.39 619,356.77 " fill="none" id="WinNT-to-Win11" style="stroke:#181818;stroke-width:1.0;"/><polygon fill="#181818" points="619,362.77,623,353.77,619,357.77,615,353.77,619,362.77" style="stroke:#181818;stroke-width:1.0;"/></g><!--link MacClassic to macOS--><g id="link_MacClassic_macOS"><path d="M10.28,408.26 C7.66,422.6 6.77,440.68 14,455 C28.78,484.27 60.1493,500.2878 78.1993,507.7878 " fill="none" id="MacClassic-to-macOS" style="stroke:#181818;stroke-width:1.0;"/><polygon fill="#181818" points="83.74,510.09,76.9637,502.9428,79.1227,508.1715,73.8941,510.3305,83.74,510.09" style="stroke:#181818;stroke-width:1.0;"/><text fill="#000000" font-family="sans-serif" font-size="13" lengthAdjust="spacing" textLength="112" x="15" y="451.0669">transition to UNIX</text></g><!--link MSDOS to OS2--><g id="link_MSDOS_OS2"><path d="M616.71,29.97 C596.91,34.38 553.85,47.11 536,77 C527.62,91.03 529.4108,104.0092 534.5908,117.8792 " fill="none" id="MSDOS-to-OS2" style="stroke:#181818;stroke-width:1.0;"/><polygon fill="#181818" points="536.69,123.5,537.2884,113.6693,534.9407,118.816,529.794,116.4683,536.69,123.5" style="stroke:#181818;stroke-width:1.0;"/><text fill="#000000" font-family="sans-serif" font-size="13" lengthAdjust="spacing" textLength="126" x="537" y="90.0669">joint IBM/MS project</text></g><!--link OS2 to WinNT--><g id="link_OS2_WinNT"><path d="M543.32,164.43 C542.36,178.28 543.08,196.87 551,211 C564.02,234.23 587.6692,246.9171 603.2292,253.6171 " fill="none" id="OS2-to-WinNT" style="stroke:#181818;stroke-width:1.0;"/><polygon fill="#181818" points="608.74,255.99,602.0557,248.7567,604.1476,254.0126,598.8918,256.1045,608.74,255.99" style="stroke:#181818;stroke-width:1.0;"/><text fill="#000000" font-family="sans-serif" font-size="13" lengthAdjust="spacing" textLength="101" x="552" y="207.0669">kernel concepts</text></g><!--SRC=[TPDRRzf048NV_Ij6oKF3Wykj8O0Y96v5I36kPABceI-RzG0Rx5sqQqgYgl-zUpCsRV7ZET-StPqPgptZ1o993X9fGVWsG_WL04m8tM-bEF9qAZ8X7nzpaQBaen7SpkVpoMng626rPdsuxTfFgry5BvBYG-UyYYmDVWV19vZXXd6iZb2mqJL8w0xY9AXElbb4uMeyXcKp_i7lseFxNkC6Y895L8UcwoInTg_jR2FKWUKaQdPxBSVSEqPhMgfJqVFJUZdrIGD7UQsEFQ-MBvPvyASPuI8d2MUnY-bx94fcb- -AasR74G-EY9FEHGQXO3Ec6L6AqOQ3l_WuGhrUh_dEU2fE2jgVtKlx_gLQR_-FMwqjDkYUiTMwpZqnVdntY7-6LQ2QVPtE2RKNZXDuCRVjj5g-oZfNgfYjqQnl0xjAZdag1KiTtNUqrwvKdFlHjaMTJjMEjbr2IKv0f3HC8K3jn0aOtsH7v1IRZEzGCfr5CLX448OZkrOmX8Bb6AeTaOnlIyjjapUXD6s1iVqQQJ_7NCYFVubpm5z0MMaOisYQK2m_P6p3C8KK5Tlom1g6S0CQWZWW3vKuIef0Cy6nGjmqXl0jJhJoIXJ2tOp84-ED2YeRE_I9UzrSp2gVsGXN1bH830AxujOq3JRNt66MWVY94ipoMzNRgxNsEPxAN2ULjNeurO9VtBcGX2jMCC7DmEn_LpjN_qAQUHEC5wQTpIY1WnHlUY42OzNFTkVgc-lf7Whr1m00]--></g></svg>