<svg xmlns="http://www.w3.org/2000/svg" xmlns:xlink="http://www.w3.org/1999/xlink" contentStyleType="text/css" height="632px" preserveAspectRatio="none" style="width:812px;height:632px;background:#FFFFFF;" version="1.1" viewBox="0 0 812 632" width="812px" zoomAndPan="magnify"><defs/><g><!--entity GM--><g id="elem_GM"><rect fill="#F1F1F1" height="52.5938" rx="2.5" ry="2.5" style="stroke:#333333;stroke-width:0.5;" width="110" x="217.5" y="7"/><text fill="#000000" font-family="sans-serif" font-size="14" font-weight="bold" lengthAdjust="spacing" textLength="90" x="227.5" y="29.9951">GM-NAA I/O</text><text fill="#000000" font-family="sans-serif" font-size="14" font-weight="bold" lengthAdjust="spacing" textLength="52" x="227.5" y="46.292">(1956)</text></g><!--entity CTSS--><g id="elem_CTSS"><rect fill="#F1F1F1" height="52.5938" rx="2.5" ry="2.5" style="stroke:#333333;stroke-width:0.5;" width="72" x="350.5" y="136.59"/><text fill="#000000" font-family="sans-serif" font-size="14" font-weight="bold" lengthAdjust="spacing" textLength="41" x="360.5" y="159.5851">CTSS</text><text fill="#000000" font-family="sans-serif" font-size="14" font-weight="bold" lengthAdjust="spacing" textLength="52" x="360.5" y="175.882">(1961)</text></g><!--entity IBM360--><g id="elem_IBM360"><rect fill="#F1F1F1" height="52.5938" rx="2.5" ry="2.5" style="stroke:#333333;stroke-width:0.5;" width="82" x="221.5" y="266.19"/><text fill="#000000" font-family="sans-serif" font-size="14" font-weight="bold" lengthAdjust="spacing" textLength="62" x="231.5" y="289.1851">IBM/360</text><text fill="#000000" font-family="sans-serif" font-size="14" font-weight="bold" lengthAdjust="spacing" textLength="52" x="231.5" y="305.482">(1965)</text></g><!--entity MULTICS--><g id="elem_MULTICS"><rect fill="#F1F1F1" height="52.5938" rx="2.5" ry="2.5" style="stroke:#333333;stroke-width:0.5;" width="88" x="394.5" y="266.19"/><text fill="#000000" font-family="sans-serif" font-size="14" font-weight="bold" lengthAdjust="spacing" textLength="68" x="404.5" y="289.1851">MULTICS</text><text fill="#000000" font-family="sans-serif" font-size="14" font-weight="bold" lengthAdjust="spacing" textLength="52" x="404.5" y="305.482">(1969)</text></g><!--entity UNIX--><g id="elem_UNIX"><rect fill="#F1F1F1" height="52.5938" rx="2.5" ry="2.5" style="stroke:#333333;stroke-width:0.5;" width="72" x="402.5" y="403.93"/><text fill="#000000" font-family="sans-serif" font-size="14" font-weight="bold" lengthAdjust="spacing" textLength="36" x="412.5" y="426.9251">UNIX</text><text fill="#000000" font-family="sans-serif" font-size="14" font-weight="bold" lengthAdjust="spacing" textLength="52" x="412.5" y="443.222">(1971)</text></g><!--entity MSDOS--><g id="elem_MSDOS"><rect fill="#F1F1F1" height="52.5938" rx="2.5" ry="2.5" style="stroke:#333333;stroke-width:0.5;" width="82" x="614.5" y="7"/><text fill="#000000" font-family="sans-serif" font-size="14" font-weight="bold" lengthAdjust="spacing" textLength="62" x="624.5" y="29.9951">MS-DOS</text><text fill="#000000" font-family="sans-serif" font-size="14" font-weight="bold" lengthAdjust="spacing" textLength="52" x="624.5" y="46.292">(1981)</text></g><!--entity OS2--><g id="elem_OS2"><rect fill="#F1F1F1" height="52.5938" rx="2.5" ry="2.5" style="stroke:#333333;stroke-width:0.5;" width="72" x="537.5" y="136.59"/><text fill="#000000" font-family="sans-serif" font-size="14" font-weight="bold" lengthAdjust="spacing" textLength="37" x="547.5" y="159.5851">OS/2</text><text fill="#000000" font-family="sans-serif" font-size="14" font-weight="bold" lengthAdjust="spacing" textLength="52" x="547.5" y="175.882">(1987)</text></g><!--entity MacClassic--><g id="elem_MacClassic"><rect fill="#F1F1F1" height="68.8906" rx="2.5" ry="2.5" style="stroke:#333333;stroke-width:0.5;" width="87" x="7" y="395.78"/><text fill="#000000" font-family="sans-serif" font-size="14" font-weight="bold" lengthAdjust="spacing" textLength="58" x="17" y="418.7751">Mac OS</text><text fill="#000000" font-family="sans-serif" font-size="14" font-weight="bold" lengthAdjust="spacing" textLength="67" x="17" y="435.072">(Classic)</text><text fill="#000000" font-family="sans-serif" font-size="14" font-weight="bold" lengthAdjust="spacing" textLength="52" x="17" y="451.3689">(1984)</text></g><!--entity Win1--><g id="elem_Win1"><rect fill="#F1F1F1" height="52.5938" rx="2.5" ry="2.5" style="stroke:#333333;stroke-width:0.5;" width="122" x="675.5" y="136.59"/><text fill="#000000" font-family="sans-serif" font-size="14" font-weight="bold" lengthAdjust="spacing" textLength="102" x="685.5" y="159.5851">Windows 1.0</text><text fill="#000000" font-family="sans-serif" font-size="14" font-weight="bold" lengthAdjust="spacing" textLength="52" x="685.5" y="175.882">(1985)</text></g><!--entity WinNT--><g id="elem_WinNT"><rect fill="#F1F1F1" height="52.5938" rx="2.5" ry="2.5" style="stroke:#333333;stroke-width:0.5;" width="118" x="600.5" y="266.19"/><text fill="#000000" font-family="sans-serif" font-size="14" font-weight="bold" lengthAdjust="spacing" textLength="98" x="610.5" y="289.1851">Windows NT</text><text fill="#000000" font-family="sans-serif" font-size="14" font-weight="bold" lengthAdjust="spacing" textLength="52" x="610.5" y="305.482">(1993)</text></g><!--entity Linux--><g id="elem_Linux"><rect fill="#EEEBDC" height="68.8906" rx="2.5" ry="2.5" style="stroke:#333333;stroke-width:0.5;" width="99" x="586" y="549.82"/><text fill="#000000" font-family="sans-serif" font-size="14" font-weight="bold" lengthAdjust="spacing" textLength="79" x="596" y="572.8151">«modern»</text><text fill="#000000" font-family="sans-serif" font-size="14" font-weight="bold" lengthAdjust="spacing" textLength="42" x="609.5" y="589.112">Linux</text><text fill="#000000" font-family="sans-serif" font-size="14" font-weight="bold" lengthAdjust="spacing" textLength="52" x="609.5" y="605.4089">(1991)</text></g><!--entity macOS--><g id="elem_macOS"><rect fill="#EEEBDC" height="85.1875" rx="2.5" ry="2.5" style="stroke:#333333;stroke-width:0.5;" width="99" x="78" y="541.67"/><text fill="#000000" font-family="sans-serif" font-size="14" font-weight="bold" lengthAdjust="spacing" textLength="79" x="88" y="564.6651">«modern»</text><text fill="#000000" font-family="sans-serif" font-size="14" font-weight="bold" lengthAdjust="spacing" textLength="54" x="100.5" y="580.962">macOS</text><text fill="#000000" font-family="sans-serif" font-size="14" font-weight="bold" lengthAdjust="spacing" textLength="49" x="100.5" y="597.2589">(OS X)</text><text fill="#000000" font-family="sans-serif" font-size="14" font-weight="bold" lengthAdjust="spacing" textLength="52" x="100.5" y="613.5557">(2001)</text></g><!--entity iOS--><g id="elem_iOS"><rect fill="#EEEBDC" height="68.8906" rx="2.5" ry="2.5" style="stroke:#333333;stroke-width:0.5;" width="99" x="318" y="549.82"/><text fill="#000000" font-family="sans-serif" font-size="14" font-weight="bold" lengthAdjust="spacing" textLength="79" x="328" y="572.8151">«modern»</text><text fill="#000000" font-family="sans-serif" font-size="14" font-weight="bold" lengthAdjust="spacing" textLength="26" x="341.5" y="589.112">iOS</text><text fill="#000000" font-family="sans-serif" font-size="14" font-weight="bold" lengthAdjust="spacing" textLength="52" x="341.5" y="605.4089">(2007)</text></g><!--entity Android--><g id="elem_Android"><rect fill="#EEEBDC" height="68.8906" rx="2.5" ry="2.5" style="stroke:#333333;stroke-width:0.5;" width="99" x="452" y="549.82"/><text fill="#000000" font-family="sans-serif" font-size="14" font-weight="bold" lengthAdjust="spacing" textLength="79" x="462" y="572.8151">«modern»</text><text fill="#000000" font-family="sans-serif" font-size="14" font-weight="bold" lengthAdjust="spacing" textLength="62" x="470.5" y="589.112">Android</text><text fill="#000000" font-family="sans-serif" font-size="14" font-weight="bold" lengthAdjust="spacing" textLength="52" x="470.5" y="605.4089">(2008)</text></g><!--entity Win11--><g id="elem_Win11"><rect fill="#F1F1F1" height="52.5938" rx="2.5" ry="2.5" style="stroke:#333333;stroke-width:0.5;" width="117" x="601" y="403.93"/><text fill="#000000" font-family="sans-serif" font-size="14" font-weight="bold" lengthAdjust="spacing" textLength="97" x="611" y="426.9251">Windows 11</text><text fill="#000000" font-family="sans-serif" font-size="14" font-weight="bold" lengthAdjust="spacing" textLength="52" x="611" y="443.222">(2022)</text></g><!--link GM to CTSS--><g id="link_GM_CTSS"><path d="M295.3,59.81 C315.18,82.07 339.8725,109.7057 359.7425,131.9457 " fill="none" id="GM-to-CTSS" style="stroke:#181818;stroke-width:1.0;"/><polygon fill="#181818" points="363.74,136.42,360.7266,127.0435,360.4087,132.6914,354.7608,132.3735,363.74,136.42" style="stroke:#181818;stroke-width:1.0;"/><text fill="#000000" font-family="sans-serif" font-size="13" lengthAdjust="spacing" textLength="81" x="337.33" y="102.6569">time-sharing</text></g><!--link GM to IBM360--><g id="link_GM_IBM360"><path d="M265.47,59.7 C260.16,80.25 253.32,110.04 250.5,136.59 C245.67,182.05 251.4946,229.3032 256.6646,260.0332 " fill="none" id="GM-to-IBM360" style="stroke:#181818;stroke-width:1.0;"/><polygon fill="#181818" points="257.66,265.95,260.1114,256.4111,256.8305,261.0193,252.2223,257.7384,257.66,265.95" style="stroke:#181818;stroke-width:1.0;"/><text fill="#000000" font-family="sans-serif" font-size="13" lengthAdjust="spacing" textLength="80" x="251.5" y="167.4569">time sharing</text></g><!--link CTSS to MULTICS--><g id="link_CTSS_MULTICS"><path d="M396.9,189.41 C405.97,211.66 416.7973,238.213 425.8573,260.463 " fill="none" id="CTSS-to-MULTICS" style="stroke:#181818;stroke-width:1.0;"/><polygon fill="#181818" points="428.12,266.02,428.4305,256.176,426.2344,261.3892,421.0212,259.193,428.12,266.02" style="stroke:#181818;stroke-width:1.0;"/><text fill="#000000" font-family="sans-serif" font-size="13" lengthAdjust="spacing" textLength="105" x="416.61" y="232.2569">memory sharing</text></g><!--link CTSS to IBM360--><g id="link_CTSS_IBM360"><path d="M350.09,179.24 C331.5,188.57 309.67,202 294.5,219.19 C282.69,232.57 276.555,245.3206 271.475,260.2306 " fill="none" id="CTSS-to-IBM360" style="stroke:#181818;stroke-width:1.0;"/><polygon fill="#181818" points="269.54,265.91,276.2288,258.6809,271.1525,261.1772,268.6563,256.1009,269.54,265.91" style="stroke:#181818;stroke-width:1.0;"/><text fill="#000000" font-family="sans-serif" font-size="13" lengthAdjust="spacing" textLength="105" x="295.5" y="232.2569">memory sharing</text></g><!--link MULTICS to UNIX--><g id="link_MULTICS_UNIX"><path d="M438.5,319.02 C438.5,343.29 438.5,373.58 438.5,397.81 " fill="none" id="MULTICS-to-UNIX" style="stroke:#181818;stroke-width:1.0;"/><polygon fill="#181818" points="438.5,403.81,442.5,394.81,438.5,398.81,434.5,394.81,438.5,403.81" style="stroke:#181818;stroke-width:1.0;"/><text fill="#000000" font-family="sans-serif" font-size="13" lengthAdjust="spacing" textLength="106" x="439.5" y="361.8469">simplified design</text></g><!--link UNIX to Linux--><g id="link_UNIX_Linux"><path d="M474.8,446.69 C499.21,458.03 531.39,474.86 556.5,494.67 C576.56,510.5 591.9339,527.1254 606.3639,544.8654 " fill="none" id="UNIX-to-Linux" style="stroke:#181818;stroke-width:1.0;"/><polygon fill="#181818" points="610.15,549.52,607.5739,540.014,606.9949,545.6412,601.3678,545.0622,610.15,549.52" style="stroke:#181818;stroke-width:1.0;"/><text fill="#000000" font-family="sans-serif" font-size="13" lengthAdjust="spacing" textLength="118" x="574.58" y="507.7369">open-source clone</text></g><!--link UNIX to macOS--><g id="link_UNIX_macOS"><path d="M402.01,438.2 C360.04,447.2 289.93,465.29 235.5,494.67 C212.35,507.17 193.9376,521.0414 175.1976,537.4214 " fill="none" id="UNIX-to-macOS" style="stroke:#181818;stroke-width:1.0;"/><polygon fill="#181818" points="170.68,541.37,180.0888,538.4587,174.4446,538.0795,174.8239,532.4353,170.68,541.37" style="stroke:#181818;stroke-width:1.0;"/><text fill="#000000" font-family="sans-serif" font-size="13" lengthAdjust="spacing" textLength="130" x="236.5" y="507.7369">POSIX base (Darwin)</text></g><!--link UNIX to Android--><g id="link_UNIX_Android"><path d="M449.19,457.02 C459.72,482.43 473.573,515.8671 485.143,543.7871 " fill="none" id="UNIX-to-Android" style="stroke:#181818;stroke-width:1.0;"/><polygon fill="#181818" points="487.44,549.33,487.6898,539.4843,485.5259,544.7109,480.2993,542.5469,487.44,549.33" style="stroke:#181818;stroke-width:1.0;"/><text fill="#000000" font-family="sans-serif" font-size="13" lengthAdjust="spacing" textLength="76" x="471" y="507.7369">Linux kernel</text></g><!--link UNIX to iOS--><g id="link_UNIX_iOS"><path d="M409.38,456.76 C398.97,467.44 388.18,480.63 381.5,494.67 C373.4,511.68 370.3572,526.4332 368.8472,543.5532 " fill="none" id="UNIX-to-iOS" style="stroke:#181818;stroke-width:1.0;"/><polygon fill="#181818" points="368.32,549.53,373.0953,540.9162,368.7593,544.5493,365.1262,540.2134,368.32,549.53" style="stroke:#181818;stroke-width:1.0;"/><text fill="#000000" font-family="sans-serif" font-size="13" lengthAdjust="spacing" textLength="75" x="382.5" y="507.7369">Darwin core</text></g><!--link MSDOS to Win1--><g id="link_MSDOS_Win1"><path d="M678.26,59.84 C685.79,68.91 693.93,79.4 700.5,89.59 C710.07,104.44 716.4286,116.7409 722.9686,130.9309 " fill="none" id="MSDOS-to-Win1" style="stroke:#181818;stroke-width:1.0;"/><polygon fill="#181818" points="725.48,136.38,725.3456,126.5321,723.3871,131.8391,718.0801,129.8806,725.48,136.38" style="stroke:#181818;stroke-width:1.0;"/><text fill="#000000" font-family="sans-serif" font-size="13" lengthAdjust="spacing" textLength="94" x="710.56" y="102.6569">shell over DOS</text></g><!--link Win1 to WinNT--><g id="link_Win1_WinNT"><path d="M722.46,189.54 C714.71,203.46 704.8,220.9 695.5,236.19 C689.55,245.98 686.0393,251.532 679.9693,260.792 " fill="none" id="Win1-to-WinNT" style="stroke:#181818;stroke-width:1.0;"/><polygon fill="#181818" points="676.68,265.81,684.9593,260.4759,679.4211,261.6283,678.2687,256.0901,676.68,265.81" style="stroke:#181818;stroke-width:1.0;"/><text fill="#000000" font-family="sans-serif" font-size="13" lengthAdjust="spacing" textLength="68" x="705.81" y="232.2569">new kernel</text></g><!--link WinNT to Win11--><g id="link_WinNT_Win11"><path d="M659.5,319.02 C659.5,343.29 659.5,373.58 659.5,397.81 " fill="none" id="WinNT-to-Win11" style="stroke:#181818;stroke-width:1.0;"/><polygon fill="#181818" points="659.5,403.81,663.5,394.81,659.5,398.81,655.5,394.81,659.5,403.81" style="stroke:#181818;stroke-width:1.0;"/></g><!--link MacClassic to macOS--><g id="link_MacClassic_macOS"><path d="M42.7,464.99 C40.88,479.89 41.05,497.25 47.5,511.67 C54.12,526.48 60.9874,535.513 73.0974,546.233 " fill="none" id="MacClassic-to-macOS" style="stroke:#181818;stroke-width:1.0;"/><polygon fill="#181818" points="77.59,550.21,73.5024,541.2495,73.8461,546.8959,68.1997,547.2396,77.59,550.21" style="stroke:#181818;stroke-width:1.0;"/><text fill="#000000" font-family="sans-serif" font-size="13" lengthAdjust="spacing" textLength="112" x="48.5" y="507.7369">transition to UNIX</text></g><!--link MSDOS to OS2--><g id="link_MSDOS_OS2"><path d="M614,48.6 C595.36,57.35 575.19,70.58 564.5,89.59 C556.56,103.71 557.1314,116.0196 561.3714,130.5696 " fill="none" id="MSDOS-to-OS2" style="stroke:#181818;stroke-width:1.0;"/><polygon fill="#181818" points="563.05,136.33,564.3723,126.5703,561.6511,131.5297,556.6918,128.8085,563.05,136.33" style="stroke:#181818;stroke-width:1.0;"/><text fill="#000000" font-family="sans-serif" font-size="13" lengthAdjust="spacing" textLength="126" x="565.5" y="102.6569">joint IBM/MS project</text></g><!--link OS2 to WinNT--><g id="link_OS2_WinNT"><path d="M572.7,189.61 C573.35,204.2 576.1,222.28 584.5,236.19 C591.52,247.82 597.1958,254.1891 608.1258,262.3191 " fill="none" id="OS2-to-WinNT" style="stroke:#181818;stroke-width:1.0;"/><polygon fill="#181818" points="612.94,265.9,608.1059,257.3191,608.9281,262.9159,603.3314,263.7381,612.94,265.9" style="stroke:#181818;stroke-width:1.0;"/><text fill="#000000" font-family="sans-serif" font-size="13" lengthAdjust="spacing" textLength="101" x="585.5" y="232.2569">kernel concepts</text></g><!--SRC=[TPDRRzf048NV_Ij6oKF3Wykj8O0Y96v5I36kPABceI-RzG0Rx5sqQqgYgl-zUpCsRV7ZET-StPqPgptZ1o993X9fGVWsG_WL04m8tM-bEF9qAZ8X7nzpaQBaen7SpkVpoMng626rPdsuxTfFgry5BvBYG-UyYYmDVWV19vZXXd6iZb2mqJL8w0xY9AXElbb4uMeyXcKp_i7lseFxNkC6Y895L8UcwoInTg_jR2FKWUKaQdPxBSVSEqPhMgfJqVFJUZdrIGD7UQsEFQ-MBvPvyASPuI8d2MUnY-bx94fcb- -AasR74G-EY9FEHGQXO3Ec6L6AqOQ3l_WuGhrUh_dEU2fE2jgVtKlx_gLQR_-FMwqjDkYUiTMwpZqnVdntY7-6LQ2QVPtE2RKNZXDuCRVjj5g-oZfNgfYjqQnl0xjAZdag1KiTtNUqrwvKdFlHjaMTJjMEjbr2IKv0f3HC8K3jn0aOtsH7v1IRZEzGCfr5CLX448OZkrOmX8Bb6AeTaOnlIyjjapUXD6s1iVqQQJ_7NCYFVubpm5z0MMaOisYQK2m_P6p3C8KK5Tlom1g6S0CQWZWW3vKuIef0Cy6nGjmqXl0jJhJoIXJ2tOp84-ED2YeRE_I9UzrSp2gVsGXN1bH830AxujOq3JRNt66MWVY94ipoMzNRgxNsEPxAN2ULjNeurO9VtBcGX2jMCC7DmEn_LpjN_qAQUHEC5wQTpIY1WnHlUY42OzNFTkVgc-lf7Whr1m00]--></g></svg>