<svg xmlns="http://www.w3.org/2000/svg" xmlns:xlink="http://www.w3.org/1999/xlink" contentStyleType="text/css" height="628px" preserveAspectRatio="none" style="width:854px;height:628px;background:#FFFFFF;" version="1.1" viewBox="0 0 854 628" width="854px" zoomAndPan="magnify"><defs/><g><!--entity Fortran--><g id="elem_Fortran"><rect fill="#EEEBDC" height="52.5938" rx="2.5" ry="2.5" style="stroke:#333333;stroke-width:0.5;" width="78" x="331" y="7"/><text fill="#000000" font-family="sans-serif" font-size="14" font-weight="bold" lengthAdjust="spacing" textLength="58" x="341" y="29.9951">Fortran</text><text fill="#000000" font-family="sans-serif" font-size="14" font-weight="bold" lengthAdjust="spacing" textLength="52" x="341" y="46.292">(1957)</text></g><!--entity Algol--><g id="elem_Algol"><rect fill="#EEEBDC" height="52.5938" rx="2.5" ry="2.5" style="stroke:#333333;stroke-width:0.5;" width="72" x="221" y="119.59"/><text fill="#000000" font-family="sans-serif" font-size="14" font-weight="bold" lengthAdjust="spacing" textLength="39" x="231" y="142.5851">Algol</text><text fill="#000000" font-family="sans-serif" font-size="14" font-weight="bold" lengthAdjust="spacing" textLength="52" x="231" y="158.882">(1958)</text></g><!--entity Lisp--><g id="elem_Lisp"><rect fill="#EEEBDC" height="52.5938" rx="2.5" ry="2.5" style="stroke:#333333;stroke-width:0.5;" width="72" x="663" y="7"/><text fill="#000000" font-family="sans-serif" font-size="14" font-weight="bold" lengthAdjust="spacing" textLength="32" x="673" y="29.9951">Lisp</text><text fill="#000000" font-family="sans-serif" font-size="14" font-weight="bold" lengthAdjust="spacing" textLength="52" x="673" y="46.292">(1958)</text></g><!--entity Pascal--><g id="elem_Pascal"><rect fill="#EEEBDC" height="52.5938" rx="2.5" ry="2.5" style="stroke:#333333;stroke-width:0.5;" width="72" x="141" y="232.18"/><text fill="#000000" font-family="sans-serif" font-size="14" font-weight="bold" lengthAdjust="spacing" textLength="50" x="151" y="255.1751">Pascal</text><text fill="#000000" font-family="sans-serif" font-size="14" font-weight="bold" lengthAdjust="spacing" textLength="52" x="151" y="271.472">(1970)</text></g><!--entity C_lang--><g id="elem_C_lang"><rect fill="#EEEBDC" height="52.5938" rx="2.5" ry="2.5" style="stroke:#333333;stroke-width:0.5;" width="72" x="301" y="232.18"/><text fill="#000000" font-family="sans-serif" font-size="14" font-weight="bold" lengthAdjust="spacing" textLength="11" x="311" y="255.1751">C</text><text fill="#000000" font-family="sans-serif" font-size="14" font-weight="bold" lengthAdjust="spacing" textLength="52" x="311" y="271.472">(1972)</text></g><!--entity Prolog--><g id="elem_Prolog"><rect fill="#EEEBDC" height="52.5938" rx="2.5" ry="2.5" style="stroke:#333333;stroke-width:0.5;" width="72" x="7" y="7"/><text fill="#000000" font-family="sans-serif" font-size="14" font-weight="bold" lengthAdjust="spacing" textLength="51" x="17" y="29.9951">Prolog</text><text fill="#000000" font-family="sans-serif" font-size="14" font-weight="bold" lengthAdjust="spacing" textLength="52" x="17" y="46.292">(1972)</text></g><!--entity SQL--><g id="elem_SQL"><rect fill="#EEEBDC" height="52.5938" rx="2.5" ry="2.5" style="stroke:#333333;stroke-width:0.5;" width="81" x="114.5" y="7"/><text fill="#000000" font-family="sans-serif" font-size="14" font-weight="bold" lengthAdjust="spacing" textLength="31" x="124.5" y="29.9951">SQL</text><text fill="#000000" font-family="sans-serif" font-size="14" font-weight="bold" lengthAdjust="spacing" textLength="61" x="124.5" y="46.292">(1970s)</text></g><!--entity MATLAB--><g id="elem_MATLAB"><rect fill="#EEEBDC" height="52.5938" rx="2.5" ry="2.5" style="stroke:#333333;stroke-width:0.5;" width="84" x="328" y="119.59"/><text fill="#000000" font-family="sans-serif" font-size="14" font-weight="bold" lengthAdjust="spacing" textLength="64" x="338" y="142.5851">MATLAB</text><text fill="#000000" font-family="sans-serif" font-size="14" font-weight="bold" lengthAdjust="spacing" textLength="52" x="338" y="158.882">(1978)</text></g><!--entity Cpp--><g id="elem_Cpp"><rect fill="#EEEBDC" height="52.5938" rx="2.5" ry="2.5" style="stroke:#333333;stroke-width:0.5;" width="72" x="140" y="344.78"/><text fill="#000000" font-family="sans-serif" font-size="14" font-weight="bold" lengthAdjust="spacing" textLength="35" x="150" y="367.7751">C++</text><text fill="#000000" font-family="sans-serif" font-size="14" font-weight="bold" lengthAdjust="spacing" textLength="52" x="150" y="384.072">(1979)</text></g><!--entity Ada--><g id="elem_Ada"><rect fill="#EEEBDC" height="52.5938" rx="2.5" ry="2.5" style="stroke:#333333;stroke-width:0.5;" width="72" x="33" y="344.78"/><text fill="#000000" font-family="sans-serif" font-size="14" font-weight="bold" lengthAdjust="spacing" textLength="30" x="43" y="367.7751">Ada</text><text fill="#000000" font-family="sans-serif" font-size="14" font-weight="bold" lengthAdjust="spacing" textLength="52" x="43" y="384.072">(1983)</text></g><!--entity Erlang--><g id="elem_Erlang"><rect fill="#EEEBDC" height="52.5938" rx="2.5" ry="2.5" style="stroke:#333333;stroke-width:0.5;" width="72" x="554" y="119.59"/><text fill="#000000" font-family="sans-serif" font-size="14" font-weight="bold" lengthAdjust="spacing" textLength="49" x="564" y="142.5851">Erlang</text><text fill="#000000" font-family="sans-serif" font-size="14" font-weight="bold" lengthAdjust="spacing" textLength="52" x="564" y="158.882">(1986)</text></g><!--entity Perl--><g id="elem_Perl"><rect fill="#EEEBDC" height="52.5938" rx="2.5" ry="2.5" style="stroke:#333333;stroke-width:0.5;" width="72" x="247" y="344.78"/><text fill="#000000" font-family="sans-serif" font-size="14" font-weight="bold" lengthAdjust="spacing" textLength="31" x="257" y="367.7751">Perl</text><text fill="#000000" font-family="sans-serif" font-size="14" font-weight="bold" lengthAdjust="spacing" textLength="52" x="257" y="384.072">(1987)</text></g><!--entity Haskell--><g id="elem_Haskell"><rect fill="#EEEBDC" height="52.5938" rx="2.5" ry="2.5" style="stroke:#333333;stroke-width:0.5;" width="76" x="661" y="119.59"/><text fill="#000000" font-family="sans-serif" font-size="14" font-weight="bold" lengthAdjust="spacing" textLength="56" x="671" y="142.5851">Haskell</text><text fill="#000000" font-family="sans-serif" font-size="14" font-weight="bold" lengthAdjust="spacing" textLength="52" x="671" y="158.882">(1990)</text></g><!--entity HTML--><g id="elem_HTML"><rect fill="#EEEBDC" height="52.5938" rx="2.5" ry="2.5" style="stroke:#333333;stroke-width:0.5;" width="72" x="7" y="119.59"/><text fill="#000000" font-family="sans-serif" font-size="14" font-weight="bold" lengthAdjust="spacing" textLength="43" x="17" y="142.5851">HTML</text><text fill="#000000" font-family="sans-serif" font-size="14" font-weight="bold" lengthAdjust="spacing" textLength="52" x="17" y="158.882">(1990)</text></g><!--entity Python--><g id="elem_Python"><rect fill="#EEEBDC" height="52.5938" rx="2.5" ry="2.5" style="stroke:#333333;stroke-width:0.5;" width="75" x="354.5" y="344.78"/><text fill="#000000" font-family="sans-serif" font-size="14" font-weight="bold" lengthAdjust="spacing" textLength="55" x="364.5" y="367.7751">Python</text><text fill="#000000" font-family="sans-serif" font-size="14" font-weight="bold" lengthAdjust="spacing" textLength="52" x="364.5" y="384.072">(1991)</text></g><!--entity Java--><g id="elem_Java"><rect fill="#EEEBDC" height="52.5938" rx="2.5" ry="2.5" style="stroke:#333333;stroke-width:0.5;" width="72" x="86" y="457.37"/><text fill="#000000" font-family="sans-serif" font-size="14" font-weight="bold" lengthAdjust="spacing" textLength="31" x="96" y="480.3651">Java</text><text fill="#000000" font-family="sans-serif" font-size="14" font-weight="bold" lengthAdjust="spacing" textLength="52" x="96" y="496.662">(1995)</text></g><!--entity JavaScript--><g id="elem_JavaScript"><rect fill="#EEEBDC" height="52.5938" rx="2.5" ry="2.5" style="stroke:#333333;stroke-width:0.5;" width="97" x="464.5" y="344.78"/><text fill="#000000" font-family="sans-serif" font-size="14" font-weight="bold" lengthAdjust="spacing" textLength="77" x="474.5" y="367.7751">JavaScript</text><text fill="#000000" font-family="sans-serif" font-size="14" font-weight="bold" lengthAdjust="spacing" textLength="52" x="474.5" y="384.072">(1995)</text></g><!--entity CSS--><g id="elem_CSS"><rect fill="#EEEBDC" height="52.5938" rx="2.5" ry="2.5" style="stroke:#333333;stroke-width:0.5;" width="72" x="114" y="119.59"/><text fill="#000000" font-family="sans-serif" font-size="14" font-weight="bold" lengthAdjust="spacing" textLength="31" x="124" y="142.5851">CSS</text><text fill="#000000" font-family="sans-serif" font-size="14" font-weight="bold" lengthAdjust="spacing" textLength="52" x="124" y="158.882">(1996)</text></g><!--entity CSharp--><g id="elem_CSharp"><rect fill="#EEEBDC" height="52.5938" rx="2.5" ry="2.5" style="stroke:#333333;stroke-width:0.5;" width="72" x="86" y="569.97"/><text fill="#000000" font-family="sans-serif" font-size="14" font-weight="bold" lengthAdjust="spacing" textLength="23" x="96" y="592.9651">C#</text><text fill="#000000" font-family="sans-serif" font-size="14" font-weight="bold" lengthAdjust="spacing" textLength="52" x="96" y="609.262">(2000)</text></g><!--entity R_lang--><g id="elem_R_lang"><rect fill="#EEEBDC" height="52.5938" rx="2.5" ry="2.5" style="stroke:#333333;stroke-width:0.5;" width="72" x="447" y="119.59"/><text fill="#000000" font-family="sans-serif" font-size="14" font-weight="bold" lengthAdjust="spacing" textLength="10" x="457" y="142.5851">R</text><text fill="#000000" font-family="sans-serif" font-size="14" font-weight="bold" lengthAdjust="spacing" textLength="52" x="457" y="158.882">(2000)</text></g><!--entity Clojure--><g id="elem_Clojure"><rect fill="#EEEBDC" height="52.5938" rx="2.5" ry="2.5" style="stroke:#333333;stroke-width:0.5;" width="76" x="772" y="119.59"/><text fill="#000000" font-family="sans-serif" font-size="14" font-weight="bold" lengthAdjust="spacing" textLength="56" x="782" y="142.5851">Clojure</text><text fill="#000000" font-family="sans-serif" font-size="14" font-weight="bold" lengthAdjust="spacing" textLength="52" x="782" y="158.882">(2007)</text></g><!--entity Go--><g id="elem_Go"><rect fill="#EEEBDC" height="52.5938" rx="2.5" ry="2.5" style="stroke:#333333;stroke-width:0.5;" width="72" x="596" y="344.78"/><text fill="#000000" font-family="sans-serif" font-size="14" font-weight="bold" lengthAdjust="spacing" textLength="22" x="606" y="367.7751">Go</text><text fill="#000000" font-family="sans-serif" font-size="14" font-weight="bold" lengthAdjust="spacing" textLength="52" x="606" y="384.072">(2009)</text></g><!--entity Elixir--><g id="elem_Elixir"><rect fill="#EEEBDC" height="52.5938" rx="2.5" ry="2.5" style="stroke:#333333;stroke-width:0.5;" width="72" x="554" y="232.18"/><text fill="#000000" font-family="sans-serif" font-size="14" font-weight="bold" lengthAdjust="spacing" textLength="37" x="564" y="255.1751">Elixir</text><text fill="#000000" font-family="sans-serif" font-size="14" font-weight="bold" lengthAdjust="spacing" textLength="52" x="564" y="271.472">(2011)</text></g><!--entity TypeScript--><g id="elem_TypeScript"><rect fill="#EEEBDC" height="52.5938" rx="2.5" ry="2.5" style="stroke:#333333;stroke-width:0.5;" width="105" x="461.5" y="457.37"/><text fill="#000000" font-family="sans-serif" font-size="14" font-weight="bold" lengthAdjust="spacing" textLength="85" x="471.5" y="480.3651">TypeScript</text><text fill="#000000" font-family="sans-serif" font-size="14" font-weight="bold" lengthAdjust="spacing" textLength="52" x="471.5" y="496.662">(2012)</text></g><!--entity Swift--><g id="elem_Swift"><rect fill="#EEEBDC" height="52.5938" rx="2.5" ry="2.5" style="stroke:#333333;stroke-width:0.5;" width="72" x="355" y="457.37"/><text fill="#000000" font-family="sans-serif" font-size="14" font-weight="bold" lengthAdjust="spacing" textLength="40" x="365" y="480.3651">Swift</text><text fill="#000000" font-family="sans-serif" font-size="14" font-weight="bold" lengthAdjust="spacing" textLength="52" x="365" y="496.662">(2014)</text></g><!--entity Rust--><g id="elem_Rust"><rect fill="#EEEBDC" height="52.5938" rx="2.5" ry="2.5" style="stroke:#333333;stroke-width:0.5;" width="72" x="193" y="457.37"/><text fill="#000000" font-family="sans-serif" font-size="14" font-weight="bold" lengthAdjust="spacing" textLength="35" x="203" y="480.3651">Rust</text><text fill="#000000" font-family="sans-serif" font-size="14" font-weight="bold" lengthAdjust="spacing" textLength="52" x="203" y="496.662">(2015)</text></g><!--link Fortran to Algol--><g id="link_Fortran_Algol"><path d="M343.79,59.94 C325.54,77.81 305.5771,97.3423 287.3571,115.1823 " fill="none" id="Fortran-to-Algol" style="stroke:#181818;stroke-width:1.0;"/><polygon fill="#181818" points="283.07,119.38,292.2991,115.9415,286.6426,115.8819,286.7022,110.2254,283.07,119.38" style="stroke:#181818;stroke-width:1.0;"/></g><!--link Algol to Pascal--><g id="link_Algol_Pascal"><path d="M238.45,172.54 C225.52,190.41 211.8775,209.2692 198.9675,227.1092 " fill="none" id="Algol-to-Pascal" style="stroke:#181818;stroke-width:1.0;"/><polygon fill="#181818" points="195.45,231.97,203.9668,227.0239,198.3813,227.9194,197.4858,222.3338,195.45,231.97" style="stroke:#181818;stroke-width:1.0;"/></g><!--link Algol to C_lang--><g id="link_Algol_C_lang"><path d="M275.55,172.54 C288.48,190.41 302.1225,209.2692 315.0325,227.1092 " fill="none" id="Algol-to-C_lang" style="stroke:#181818;stroke-width:1.0;"/><polygon fill="#181818" points="318.55,231.97,316.5142,222.3338,315.6187,227.9194,310.0332,227.0239,318.55,231.97" style="stroke:#181818;stroke-width:1.0;"/></g><!--link Fortran to MATLAB--><g id="link_Fortran_MATLAB"><path d="M370,59.94 C370,77.81 370,95.54 370,113.38 " fill="none" id="Fortran-to-MATLAB" style="stroke:#181818;stroke-width:1.0;"/><polygon fill="#181818" points="370,119.38,374,110.38,370,114.38,366,110.38,370,119.38" style="stroke:#181818;stroke-width:1.0;"/></g><!--link C_lang to Cpp--><g id="link_C_lang_Cpp"><path d="M300.87,284.3 C274.45,302.45 243.6952,323.5723 217.2352,341.7523 " fill="none" id="C_lang-to-Cpp" style="stroke:#181818;stroke-width:1.0;"/><polygon fill="#181818" points="212.29,345.15,221.973,343.3502,216.411,342.3185,217.4427,336.7566,212.29,345.15" style="stroke:#181818;stroke-width:1.0;"/></g><!--link C_lang to Perl--><g id="link_C_lang_Perl"><path d="M324.48,285.13 C315.75,303 306.8036,321.3389 298.0936,339.1689 " fill="none" id="C_lang-to-Perl" style="stroke:#181818;stroke-width:1.0;"/><polygon fill="#181818" points="295.46,344.56,303.0045,338.229,297.6546,340.0674,295.8163,334.7176,295.46,344.56" style="stroke:#181818;stroke-width:1.0;"/></g><!--link Pascal to Ada--><g id="link_Pascal_Ada"><path d="M151.95,285.13 C134.5,303 115.523,322.4383 98.103,340.2683 " fill="none" id="Pascal-to-Ada" style="stroke:#181818;stroke-width:1.0;"/><polygon fill="#181818" points="93.91,344.56,103.0606,340.9178,97.4042,340.9836,97.3384,335.3271,93.91,344.56" style="stroke:#181818;stroke-width:1.0;"/></g><!--link Cpp to Java--><g id="link_Cpp_Java"><path d="M163.48,397.73 C154.75,415.59 145.8024,433.9283 137.0924,451.7683 " fill="none" id="Cpp-to-Java" style="stroke:#181818;stroke-width:1.0;"/><polygon fill="#181818" points="134.46,457.16,142.0031,450.8274,136.6537,452.6669,134.8141,447.3175,134.46,457.16" style="stroke:#181818;stroke-width:1.0;"/></g><!--link C_lang to JavaScript--><g id="link_C_lang_JavaScript"><path d="M373.47,282.4 C402.16,300.43 437.0704,322.3567 466.8804,341.0967 " fill="none" id="C_lang-to-JavaScript" style="stroke:#181818;stroke-width:1.0;"/><polygon fill="#181818" points="471.96,344.29,466.4694,336.1136,467.727,341.6289,462.2117,342.8865,471.96,344.29" style="stroke:#181818;stroke-width:1.0;"/></g><!--link C_lang to Python--><g id="link_C_lang_Python"><path d="M349.76,285.13 C358.64,303 367.7676,321.358 376.6376,339.188 " fill="none" id="C_lang-to-Python" style="stroke:#181818;stroke-width:1.0;"/><polygon fill="#181818" points="379.31,344.56,378.8827,334.7204,377.083,340.0834,371.72,338.2837,379.31,344.56" style="stroke:#181818;stroke-width:1.0;"/></g><!--link Lisp to Haskell--><g id="link_Lisp_Haskell"><path d="M699,59.94 C699,77.81 699,95.54 699,113.38 " fill="none" id="Lisp-to-Haskell" style="stroke:#181818;stroke-width:1.0;"/><polygon fill="#181818" points="699,119.38,703,110.38,699,114.38,695,110.38,699,119.38" style="stroke:#181818;stroke-width:1.0;"/></g><!--link Lisp to Clojure--><g id="link_Lisp_Clojure"><path d="M724.74,59.94 C742.68,77.81 762.2402,97.3045 780.1402,115.1445 " fill="none" id="Lisp-to-Clojure" style="stroke:#181818;stroke-width:1.0;"/><polygon fill="#181818" points="784.39,119.38,780.839,110.1936,780.8485,115.8504,775.1917,115.8599,784.39,119.38" style="stroke:#181818;stroke-width:1.0;"/></g><!--link Java to CSharp--><g id="link_Java_CSharp"><path d="M122,510.32 C122,528.19 122,545.92 122,563.75 " fill="none" id="Java-to-CSharp" style="stroke:#181818;stroke-width:1.0;"/><polygon fill="#181818" points="122,569.75,126,560.75,122,564.75,118,560.75,122,569.75" style="stroke:#181818;stroke-width:1.0;"/></g><!--link C_lang to Go--><g id="link_C_lang_Go"><path d="M373.12,270.88 C420.82,286.23 507.16,315.07 579,344.78 C584.46,347.04 584.722,347.0563 590.292,349.6263 " fill="none" id="C_lang-to-Go" style="stroke:#181818;stroke-width:1.0;"/><polygon fill="#181818" points="595.74,352.14,589.2438,344.7374,591.2,350.0452,585.8921,352.0014,595.74,352.14" style="stroke:#181818;stroke-width:1.0;"/></g><!--link Fortran to R_lang--><g id="link_Fortran_R_lang"><path d="M396.21,59.94 C414.46,77.81 434.4229,97.3423 452.6429,115.1823 " fill="none" id="Fortran-to-R_lang" style="stroke:#181818;stroke-width:1.0;"/><polygon fill="#181818" points="456.93,119.38,453.2978,110.2254,453.3574,115.8819,447.7009,115.9415,456.93,119.38" style="stroke:#181818;stroke-width:1.0;"/></g><!--link Lisp to Erlang--><g id="link_Lisp_Erlang"><path d="M673.72,59.94 C656.11,77.81 636.9314,97.2663 619.3514,115.1063 " fill="none" id="Lisp-to-Erlang" style="stroke:#181818;stroke-width:1.0;"/><polygon fill="#181818" points="615.14,119.38,624.3062,115.7771,618.6495,115.8186,618.608,110.1619,615.14,119.38" style="stroke:#181818;stroke-width:1.0;"/></g><!--link Erlang to Elixir--><g id="link_Erlang_Elixir"><path d="M590,172.54 C590,190.41 590,208.13 590,225.97 " fill="none" id="Erlang-to-Elixir" style="stroke:#181818;stroke-width:1.0;"/><polygon fill="#181818" points="590,231.97,594,222.97,590,226.97,586,222.97,590,231.97" style="stroke:#181818;stroke-width:1.0;"/></g><!--link JavaScript to TypeScript--><g id="link_JavaScript_TypeScript"><path d="M513.23,397.73 C513.39,415.59 513.5562,433.3202 513.7162,451.1602 " fill="none" id="JavaScript-to-TypeScript" style="stroke:#181818;stroke-width:1.0;"/><polygon fill="#181818" points="513.77,457.16,517.6891,448.1245,513.7252,452.1602,509.6894,448.1962,513.77,457.16" style="stroke:#181818;stroke-width:1.0;"/></g><!--link Python to Swift--><g id="link_Python_Swift"><path d="M391.77,397.73 C391.61,415.59 391.4438,433.3202 391.2838,451.1602 " fill="none" id="Python-to-Swift" style="stroke:#181818;stroke-width:1.0;"/><polygon fill="#181818" points="391.23,457.16,395.3106,448.1962,391.2748,452.1602,387.3109,448.1245,391.23,457.16" style="stroke:#181818;stroke-width:1.0;"/></g><!--link Cpp to Rust--><g id="link_Cpp_Rust"><path d="M188.29,397.73 C196.85,415.59 205.6393,433.9081 214.1793,451.7481 " fill="none" id="Cpp-to-Rust" style="stroke:#181818;stroke-width:1.0;"/><polygon fill="#181818" points="216.77,457.16,216.4919,447.3151,214.6111,452.6501,209.2761,450.7693,216.77,457.16" style="stroke:#181818;stroke-width:1.0;"/></g><!--SRC=[PPDHJzim58NV_IiiU60JGcfXhCtBf3OBJ5EHWFHn4Z9DLaAzE7BIiMhQVv_jSvlu1bugldliUywzJhkhwaPPzKlQSjEfUgjB-LT8kLIRtTQQVLsaHXihJxCiMtvDVSNOehH4hyAVepUcxlBku4u_6rs8VqASoMboFMd5SE_9ZR6TLVMF-eChpJwUIDLAOh5ieRT6GpI7A91OighQXYay47INl2ZCMttnXOu59pFkv5wr6uKUimbk08f5AUgNgATFsd5sYNL3s38HK2pA7rRKfeN4WRX-jrYl5aj8A0kG2ExxB6IFG_8qpaqNXE1p7ZmzFqUlX58r3HjzeK9vVaM3BrHSpgpl1yLdA83OM4gBoSvfnHu8M1sSkxuZ56I8EMpGzGyn4XxZcsftfKQRX1P8ZCdMTokkSO1vFNGl1WyocPBRW6BHT_KRKqck8V5WBCWtjcgwTp9Wje4yXue6wFuNRXfzv73vQ3JHJUEXmQr__Zqx3i8Dxd8o6Ut_r3NtzDZyHLds0XvP_V7Teq-rUTtR4YfQCB5OTckWe6TsQxZ5umaVR80mCqheZexVDxaA-QOyNwQhFvKDlQUqKA1Oj3uqPRyl9wIFTy3i0twhVfBk4tt1dh2PxLjIqEOzu87fCy7FG65jM6zVYRnWnNq5tUCNuxlz1m00]--></g></svg>